<svg viewBox="94.83793517406963 183.6 830.7322929171669 230.4" xmlns:xlink="http://www.w3.org/1999/xlink" version="1.1" xmlns="http://www.w3.org/2000/svg" style="max-height: 500px" width="830.7322929171669" height="230.4"><rect fill="#ffffff" y="0" x="0" height="600" width="1000"/><g><rect x="191.64703369140625" transform="matrix(0.6522408624441643,0,0,0.6522408624441645,0,51.7989478443632)" fill="#6f4b9b" y="213.86923840849965" ry="13.333333333333334" rx="13.333333333333334" height="333.3333333333333" width="333.3333333333333"/><path transform="matrix(0.6522408624441643,0,0,0.6522408624441645,0,51.7989478443632)" fill="#ffc857" d="M381.48254666969365 455.53590773736994L353.38851197558984 455.53590773736994L353.38851197558984 455.12790308413605Q353.5925143022067 454.60332567283535 353.70908706027353 453.5833140397507Q353.7965166288237 452.563302406666 353.7965166288237 451.74729310019825L353.7965166288237 451.74729310019825Q353.7965166288237 448.57068544287733 352.9222209433226 444.7237844266723Q352.0770684473381 440.87688341046726 349.59989733841815 435.1356750756763L349.59989733841815 435.1356750756763L337.2140417938184 407.2747858977061Q331.47283345902747 407.0707835710891 321.9430104870649 407.0707835710891Q312.41318751510227 407.0707835710891 301.33877549875433 407.0707835710891L301.33877549875433 407.0707835710891Q293.266112002627 407.0707835710891 285.71802591780033 407.0707835710891Q278.19908302249036 407.0707835710891 272.13729960301566 407.2747858977061L272.13729960301566 407.2747858977061L260.36345103826676 434.31966576920854Q258.8188619938814 438.10828040638023 257.0994138123958 442.6254747814695Q255.35082244139346 447.1426691565588 255.35082244139346 451.74729310019825L255.35082244139346 451.74729310019825Q255.35082244139346 453.0878798179667 255.5548247680104 453.96217550346785Q255.75882709462735 454.80732799945224 255.9628294212443 455.12790308413605L255.9628294212443 455.12790308413605L255.9628294212443 455.53590773736994L235.06716253776665 455.53590773736994L235.06716253776665 455.12790308413605Q236.90318347731906 453.1753093865168 239.67178648140606 448.2209671686769Q242.44038948549306 443.2374817613203 245.70442671136405 435.7476820555271L245.70442671136405 435.7476820555271L304.42795358752505 305.53591129488814L312.6171898417192 305.53591129488814L368.2515386291095 430.73505345865374Q370.2041323267287 435.1356750756763 372.3024419719315 439.30315117656517Q374.4007516171343 443.4414840879373 376.23677255668673 446.7346645033249Q378.10193668575585 449.9987017291959 379.5299529720744 452.2427273219822Q380.95796925839295 454.5158961042853 381.48254666969365 455.12790308413605L381.48254666969365 455.12790308413605L381.48254666969365 455.53590773736994ZM275.92591424018735 398.2695403370442L287.00032625653535 398.2695403370442Q292.9455369179432 398.2695403370442 299.1821794745181 398.21125395801073Q305.4479652206097 398.1529675789774 311.451462261051 398.0946811999439Q317.42581611197556 398.0655380104272 322.9630221201496 398.00725163139384Q328.50022812832356 397.9489652523604 333.01742250341283 397.8615356838103L333.01742250341283 397.8615356838103L304.2239512609081 332.78479349300756L275.92591424018735 398.2695403370442ZM415.69665116230556 316.61032331123613L415.69665116230556 390.4883087360839Q425.72190835605215 392.32432967563625 434.0860037473466 390.83802701028435Q442.4209559491243 389.35172434493234 448.42445298956545 384.48481169564263Q454.42795003000674 379.6178990463528 457.7502736349112 371.31209003409185Q461.07259723981554 363.0062810218309 461.07259723981554 351.02843013046504L461.07259723981554 351.02843013046504Q461.07259723981554 342.7226211182041 459.3240058688133 335.93225796081174Q457.60455768732766 329.1127516139027 454.1656613243564 324.33326853316305Q450.72676496138524 319.58292864194004 445.510134037895 316.96004158543656Q440.264359924888 314.33715452893307 433.2991376303955 314.33715452893307L433.2991376303955 314.33715452893307Q428.898516013373 314.33715452893307 425.634478787502 314.71601599265034Q422.34129837211435 315.06573426685077 420.097272779328 315.47373892008466L420.097272779328 315.47373892008466Q417.4452425333079 315.99831633138535 415.69665116230556 316.61032331123613L415.69665116230556 316.61032331123613ZM394.07240454091027 309.03309403689275L394.07240454091027 308.62508938365886Q396.11242780707965 308.8290917102758 398.38559658938266 309.03309403689275L398.38559658938266 309.03309403689275Q400.3090470974852 309.2370963635097 402.7279318273718 309.2662395530264Q405.14681655725826 309.3245259320598 407.7114172347283 309.3245259320598L407.7114172347283 309.3245259320598Q411.704034198517 309.3245259320598 418.49439735590926 308.3628006780085Q425.31390370281827 307.3719322344406 435.86373830786556 307.3719322344406L435.86373830786556 307.3719322344406Q445.7141363645119 307.3719322344406 454.0490885662896 310.25710799659436Q462.413183957584 313.1131405692315 468.56239694560884 318.65034657740546Q474.71160993363367 324.1875525855795 478.1505062966048 332.1145001341233Q481.56025947005935 340.07059087218386 481.56025947005935 350.21242082399726L481.56025947005935 350.21242082399726Q481.56025947005935 363.8514335178153 476.1396262199521 373.7892611430118Q470.718992969845 383.7270887682083 461.59717465111623 389.8471585667164Q452.4753563323875 395.99637155474113 440.5849350095718 398.21125395801073Q428.69451368675607 400.4261363612803 415.69665116230556 398.4735426636611L415.69665116230556 398.4735426636611L415.69665116230556 415.4640221519003Q415.69665116230556 424.17783581739513 415.9589398679559 430.6767670796204Q416.1920853840896 437.2048415313624 416.5709468478067 441.8968950435519Q416.9206651220072 446.6180917452581 417.47438572282454 449.794699402579Q418.0572495131587 452.9713070598999 418.66925649300947 455.12790308413605L418.66925649300947 455.12790308413605L418.66925649300947 455.53590773736994L394.07240454091027 455.53590773736994L394.07240454091027 455.12790308413605Q394.6844115207611 452.9713070598999 395.2381321215785 449.794699402579Q395.82099591191263 446.6180917452581 396.2290005651465 441.8968950435519Q396.63700521838035 437.2048415313624 396.8410075449973 430.6767670796204Q397.04500987161424 424.17783581739513 397.04500987161424 415.4640221519003L397.04500987161424 415.4640221519003L397.04500987161424 348.7844045376787Q397.04500987161424 340.07059087218386 396.8410075449973 333.5716596099586Q396.63700521838035 327.0435851582166 396.2290005651465 322.2932452669936Q395.82099591191263 317.513762186254 395.2381321215785 314.33715452893307Q394.6844115207611 311.16054687161227 394.07240454091027 309.03309403689275L394.07240454091027 309.03309403689275Z"/><path transform="matrix(0.6522408624441643,0,0,0.6522408624441645,0,51.7989478443632)" fill="#ffc857" d="M752.4605900531694 453.21187628290465L724.8018329234151 453.21187628290465L724.8018329234151 452.81019308807413Q725.0026745208304 452.29374326614925 725.1174411479246 451.2895352790731Q725.2035161182455 450.28532729199696 725.2035161182455 449.481960902336L725.2035161182455 449.481960902336Q725.2035161182455 446.35457031401324 724.3427664150374 442.5672716198975Q723.510708368603 438.77997292578175 721.0719175428464 433.1277165413817L721.0719175428464 433.1277165413817L708.8779634140649 405.69849266581605Q703.2257070296648 405.49765106840084 693.8435352646961 405.49765106840084Q684.4613634997277 405.49765106840084 673.558533925758 405.49765106840084L673.558533925758 405.49765106840084Q665.6109449994697 405.49765106840084 658.1798058951063 405.49765106840084Q650.7773584475162 405.49765106840084 644.8094938386066 405.69849266581605L644.8094938386066 405.69849266581605L633.2180645020705 432.32435015172075Q631.6974066930695 436.05426553228926 630.0045989434269 440.501472332198Q628.2830995370107 444.9486791321066 628.2830995370107 449.481960902336L628.2830995370107 449.481960902336Q628.2830995370107 450.80177711392184 628.4839411344259 451.66252681713Q628.6847827318411 452.49458486356446 628.8856243292564 452.81019308807413L628.8856243292564 452.81019308807413L628.8856243292564 453.21187628290465L608.3137064225821 453.21187628290465L608.3137064225821 452.81019308807413Q610.1212807993193 450.8878520842427 612.8469881928115 446.01027043272995Q615.572695586304 441.1039971244436 618.7861611449478 433.7302413336274L618.7861611449478 433.7302413336274L676.59984954376 305.53591886916394L684.6622050971428 305.53591886916394L739.4345778779532 428.79527636856744Q741.3569188817846 433.1277165413817 743.4227181694841 437.2306234600071Q745.4885174571837 441.3048387218589 747.2960918339209 444.54699593727617Q749.1323578674314 447.7604614959198 750.538249049338 449.9697190674873Q751.9441402312445 452.2076682958285 752.4605900531694 452.81019308807413L752.4605900531694 452.81019308807413L752.4605900531694 453.21187628290465ZM648.5394092191752 396.83277072277247L659.4422387931447 396.83277072277247Q665.2953367749601 396.83277072277247 671.4353513245113 396.77538740922523Q677.6040575308361 396.718004095678 683.5145388261988 396.66062078213076Q689.3963284647875 396.63192912535715 694.8477432517723 396.57454581181Q700.2991580387571 396.5171624982628 704.7463648386658 396.43108752794194L704.7463648386658 396.43108752794194L676.3990079463449 332.3626179524838L648.5394092191752 396.83277072277247ZM810.5611950197181 353.4509856810829L811.565403006794 370.20691323686776L810.1308201681138 370.40775483428297Q809.4422204055475 368.083730635621 807.8641792829992 365.4440982124495Q806.3148298172246 362.8331574460515 803.8473473346946 360.623899874484Q801.3798648521647 358.3859506461429 797.879482725785 356.92267615068897Q794.4077922561787 355.4594016552352 789.8745104859493 355.4594016552352L789.8745104859493 355.4594016552352Q786.7471198976266 355.4594016552352 783.9640291905869 356.3775346719906Q781.1809384835474 357.2956676887459 779.1151391958479 359.0458587519357Q777.0493399081483 360.8247414718992 775.8442903236569 363.4356822382972Q774.6392407391656 366.0466230046951 774.6392407391656 369.60438844462203L774.6392407391656 369.60438844462203Q774.6392407391656 374.539353409682 777.7092480139411 379.0152518663642Q780.7792552887167 383.51984197982006 785.4273036860407 387.90966546618154Q790.0753520833646 392.2994889525429 795.4693835568021 396.718004095678Q800.8634150302398 401.1652108955866 805.5114634275635 406.0141008903257Q810.1308201681138 410.83429922829123 813.2295190996631 416.3430973288232Q816.2995263744388 421.8518954293553 816.2995263744388 428.1927515763217L816.2995263744388 428.1927515763217Q816.2995263744388 433.3285581387969 814.4919519977018 438.23483144708325Q812.655685964191 443.1124130985959 808.897078926849 446.95709510625886Q805.1097802327331 450.80177711392184 799.1992989373707 453.1544929693574Q793.2888176420083 455.5359004815665 785.1403871183047 455.5359004815665L785.1403871183047 455.5359004815665Q780.2914971235655 455.5359004815665 776.1025152346194 454.6177674648112Q771.9135333456732 453.72832610482953 768.4418428760671 452.3511265796965Q764.9414607496874 451.00261871133705 762.1870616994213 449.33850261846806Q759.4039709923818 447.67438652559895 757.280788391135 446.15372871659804L757.280788391135 446.15372871659804L758.2849963782112 426.98770199183036L759.9204208143067 426.98770199183036Q760.9246288013828 431.72182535947513 762.9330447755351 435.65258233745885Q764.9414607496874 439.5833393154426 767.9253930541422 442.3664300224822Q770.909325358597 445.1495207295218 774.7253157094863 446.6988701952964Q778.5699977171494 448.2769113178447 783.1032794873788 448.2769113178447L783.1032794873788 448.2769113178447Q790.5631102485158 448.2769113178447 794.9529337348772 444.14531274244575Q799.3427572212388 439.9850225102731 799.3427572212388 433.3285581387969L799.3427572212388 433.3285581387969Q799.3427572212388 427.9919099789065 796.3875165735574 423.5160115222243Q793.4035842691026 419.01142140876846 788.8703024988731 414.8798228333694Q784.30832907187 410.7482242579704 779.1151391958479 406.61662568257145Q773.9219493198254 402.4850271071724 769.388667549596 397.7795953963014Q764.8553857793665 393.10285534220384 761.8714534749117 387.507982271351Q758.9162128272305 381.8844175437247 758.9162128272305 374.7401950070972L758.9162128272305 374.7401950070972Q758.9162128272305 368.88709702528195 761.0680870852507 363.9808237169956Q763.2486530000447 359.10324206548296 767.1220266644812 355.6315515958769Q770.9954003289179 352.1311694694971 776.3607401455818 350.23752012243926Q781.6973883054723 348.3151791186077 788.0669361092123 348.3151791186077L788.0669361092123 348.3151791186077Q796.416208230331 348.3151791186077 802.0110813011838 350.06537018179756Q807.6346460288103 351.84425290176114 810.5611950197181 353.4509856810829L810.5611950197181 353.4509856810829ZM875.6051809254786 447.27270333076854L875.6051809254786 447.27270333076854Q878.6464965434807 447.27270333076854 881.6017371911619 446.15372871659804Q884.5856694956167 445.0347541024274 887.3687602026564 443.1124130985959Q890.1231592529223 441.21876375153806 892.7054083625467 438.75128126900813Q895.2876574721711 436.2551071297046 897.4969150437387 433.5293997362121L897.4969150437387 433.5293997362121L898.5011230308148 434.045849558137L891.9594252864329 450.28532729199696Q890.725684045168 450.8878520842427 888.975492981978 451.74860178745075Q887.1966102620147 452.6093514906589 884.7291277794848 453.3553345667726Q882.2616452969548 454.13000929965995 878.9334131112166 454.67515077835844Q875.6051809254786 455.22029225705694 871.0718991552492 455.22029225705694L871.0718991552492 455.22029225705694Q857.5581288148817 455.22029225705694 850.0409147401972 447.9039197797879Q842.5237006655129 440.61623895929233 842.5237006655129 425.06536098799893L842.5237006655129 425.06536098799893L842.5237006655129 357.78342585389714L825.566931512313 358.3859506461429L825.566931512313 349.5202287030992Q828.6943221006359 349.7210703005144 833.0554539302236 349.80714527083524Q837.3878941030378 349.9219118979296 842.5237006655129 349.9219118979296L842.5237006655129 349.9219118979296Q842.4089340384185 342.7489977045285 842.1794007842298 337.26889126077015Q841.9211758732672 331.76009316023817 841.576875991984 327.68587789838637Q841.2038844539272 323.58297097976094 840.716126288776 320.7711886159477Q840.1996764668511 317.9594062521345 839.7119183016998 316.03706524830307L839.7119183016998 316.03706524830307L839.7119183016998 315.63538205347265L863.0095436018664 315.63538205347265L863.0095436018664 316.03706524830307Q862.4070188096207 317.9594062521345 861.8905689876958 320.7711886159477Q861.3741191657709 323.58297097976094 861.0298192844878 327.62849458483913Q860.6855194032044 331.6740181899173 860.427294492242 337.1541246336757Q860.1690695812795 342.66292273420777 860.0829946109588 349.9219118979296L860.0829946109588 349.9219118979296Q866.4238507579253 349.80714527083524 872.535173650703 349.66368698696715Q878.6464965434807 349.5202287030992 883.6388448220878 349.26200379213674Q888.6311931006949 349.0037788811743 892.102883570301 348.7742456269855Q895.574574039907 348.51602071602304 896.6935486540776 348.3151791186077L896.6935486540776 348.3151791186077L894.8859742773407 358.5867922435581Q889.7214760580919 358.5007172732372 884.0692196736918 358.299875675822L884.0692196736918 358.299875675822Q879.2490213357264 358.0990340784068 872.9942401590806 357.98426745131235Q866.739458982435 357.8981924809916 860.0829946109588 357.78342585389714L860.0829946109588 357.78342585389714L860.0829946109588 427.18854358924557Q860.0829946109588 433.44332476589136 861.4315024793182 437.31669843032785Q862.8087020044511 441.21876375153806 864.9605762624715 443.42802132310555Q867.1411421772655 445.63727889467316 869.8955412275313 446.440645284334Q872.6786319345711 447.27270333076854 875.6051809254786 447.27270333076854ZM918.3844411749224 413.7608482191989L918.3844411749224 389.3729399616353Q918.3844411749224 380.7941345863277 918.12621626396 374.3958951258139Q917.8679913529975 367.96896400852665 917.5236914717143 363.34960726797635Q917.1793915904311 358.70155887065243 916.605558454959 355.57416828232965Q916.0604169762605 352.44677769400676 915.4578921840148 350.32359509276L915.4578921840148 350.32359509276L915.4578921840148 349.9219118979296L938.7555174841814 349.9219118979296L938.7555174841814 350.32359509276Q937.9521510945206 352.64761929142196 937.3783179590484 355.97585147716006Q936.83317648035 359.30408366289817 936.5462599126138 364.5546568524677L936.5462599126138 364.5546568524677Q940.2761752931824 361.4272662641449 944.293007241487 358.3859506461429Q948.3385308465652 355.37332668491445 952.5848960490587 353.0493024862525Q956.8025695947783 350.7252782875905 961.1923930811399 349.31938710568386Q965.5822165675013 347.9134959237773 970.0294233674099 347.9134959237773L970.0294233674099 347.9134959237773Q972.7551307609024 347.9134959237773 974.7635467350547 348.1430291779661Q976.771962709207 348.40125408892857 978.4073871453024 348.8603205973062Q980.0141199246243 349.31938710568386 981.3052444794364 349.86452858438236Q982.6250606910221 350.43836171985447 983.8301102755136 350.92611988500573L983.8301102755136 350.92611988500573L978.8951453104537 370.20691323686776L977.1736459040374 369.80523004203724Q975.9685963195461 365.35802324212864 972.6403641338079 362.6896991621835Q969.3121319480699 360.02137508223825 963.573800593349 360.02137508223825L963.573800593349 360.02137508223825Q960.4464100050261 360.02137508223825 957.0034111921937 361.11165803963524Q953.5891040361348 362.23063265380574 950.0600302529815 364.1816653144109Q946.5309564698282 366.1613896317896 943.0018826866749 368.743638741414Q939.444117246748 371.29719619426476 936.1158850610097 374.1376702148515L936.1158850610097 374.1376702148515Q935.9150434635947 377.0642192057592 935.9150434635947 380.478526361818Q935.9150434635947 383.9215251746506 935.9150434635947 387.73751552553995L935.9150434635947 387.73751552553995L935.9150434635947 413.7608482191989Q935.9150434635947 422.33965359450656 936.1158850610097 428.7378930550202Q936.3454183151987 435.1648241723076 936.7471015100291 439.7841809128579Q937.1487847048595 444.4322293101817 937.6365428700108 447.5596198985046Q938.1529926919357 450.6870104868275 938.7555174841814 452.81019308807413L938.7555174841814 452.81019308807413L938.7555174841814 453.21187628290465L915.4578921840148 453.21187628290465L915.4578921840148 452.81019308807413Q916.0604169762605 450.6870104868275 916.605558454959 447.5596198985046Q917.1793915904311 444.4322293101817 917.5236914717143 439.7841809128579Q917.8679913529975 435.1648241723076 918.12621626396 428.7378930550202Q918.3844411749224 422.33965359450656 918.3844411749224 413.7608482191989L918.3844411749224 413.7608482191989ZM987.1583424612516 423.45862820867706L987.1583424612516 423.45862820867706Q987.1583424612516 415.48234762561515 990.4578829902161 409.6292496437999Q993.7287318624069 403.7761516619846 999.1801466493919 399.6445530865856Q1004.6315614363766 395.51295451118665 1011.5749423755888 392.93070540156225Q1018.5470149715745 390.37714794871147 1026.0068457327116 388.9138734532577Q1033.4666764938488 387.4505989578039 1040.7256656575705 386.8767658223318Q1047.9846548212925 386.3316243436333 1054.038594400523 386.24554937331243L1054.038594400523 386.24554937331243L1054.038594400523 381.08105115406374Q1054.038594400523 374.42458678258754 1052.3170949941068 369.60438844462203Q1050.624287244464 364.7554984498829 1047.4968966561412 361.5707245480129Q1044.3695060678183 358.3859506461429 1039.979682581457 356.83660118036823Q1035.5898590950953 355.25856005782 1030.339285905526 355.25856005782L1030.339285905526 355.25856005782Q1026.7241371520518 355.25856005782 1023.1663717121248 355.8610848500657Q1019.6372979289715 356.49230129908494 1015.8786908916293 357.8981924809916Q1012.0913921975136 359.30408366289817 1007.9024103085674 361.71418283188086Q1003.7134284196213 364.1529736576373 998.8645384248821 367.8828890382058L998.8645384248821 367.8828890382058L997.8603304378059 367.2803642459601L1004.7176364066975 353.0493024862525Q1008.0458685924355 351.52864467725146 1011.2880258078528 350.58182000372244Q1014.5014913664963 349.6063036734199 1017.8297235522346 349.0037788811743Q1021.1579557379725 348.40125408892857 1024.6296462075786 348.1430291779661Q1028.1300283339583 347.9134959237773 1031.9460186848478 347.9134959237773L1031.9460186848478 347.9134959237773Q1042.5332400343077 347.9134959237773 1050.050454108992 350.4670533766281Q1057.5676681836762 353.0493024862525 1062.3591748648682 357.5252009429347Q1067.15068154606 362.02979105639054 1069.3886307744012 368.0263473220738Q1071.5978883459688 374.0229035877571 1071.5978883459688 380.88020955664854L1071.5978883459688 380.88020955664854L1071.5978883459688 413.7608482191989Q1071.5978883459688 422.33965359450656 1071.8561132569312 428.7378930550202Q1072.1143381678935 435.1648241723076 1072.458638049177 439.7841809128579Q1072.80293793046 444.4322293101817 1073.3480794091586 447.5596198985046Q1073.9219125446307 450.6870104868275 1074.5244373368764 452.81019308807413L1074.5244373368764 452.81019308807413L1074.5244373368764 453.21187628290465L1052.231020023786 453.21187628290465L1052.231020023786 452.81019308807413Q1052.7474698457108 451.20346030875237 1052.9770030998995 449.16635267782647Q1053.235228010862 447.1579367036742 1053.4360696082772 444.34615433986096L1053.4360696082772 444.34615433986096Q1051.3128870070304 446.15372871659804 1048.44372132967 448.0760697204295Q1045.5745556523098 449.9697190674873 1041.9020235852884 451.54776019003555Q1038.2007998614934 453.0971096558102 1033.7249014048111 454.0726259861127Q1029.2203112913553 455.0194506596416 1023.8836631314648 455.0194506596416L1023.8836631314648 455.0194506596416Q1006.3243691860193 455.0194506596416 996.7413558236356 446.8136368223909Q987.1583424612516 438.57913132836643 987.1583424612516 423.45862820867706ZM1054.038594400523 413.7608482191989L1054.038594400523 394.10706332928Q1044.8572642329696 394.19313829960083 1036.3932254847564 395.16865462990336Q1027.9291867365432 396.11547930343227 1021.4161806489351 399.1567949214343Q1014.9031745613268 402.16941888266274 1011.0298008968903 407.76429195351557Q1007.1277355756802 413.3591650243684 1007.1277355756802 422.6552618190161L1007.1277355756802 422.6552618190161Q1007.1277355756802 434.56229938006186 1013.0956001845898 440.81708055670765Q1019.0347731367258 447.07186173335333 1029.535919515865 447.07186173335333L1029.535919515865 447.07186173335333Q1034.384809510604 447.07186173335333 1038.372949802135 445.6946622082203Q1042.3323984368924 444.34615433986096 1045.4310973684417 442.28035505216144Q1048.5011046432173 440.1858641076883 1050.624287244464 437.7183816251584Q1052.7474698457108 435.25089914262844 1053.8377528031078 432.9268749439665L1053.8377528031078 432.9268749439665Q1054.038594400523 429.1108845930771 1054.038594400523 424.40545288220596Q1054.038594400523 419.72871282810854 1054.038594400523 413.7608482191989L1054.038594400523 413.7608482191989ZM1122.23866255138 316.4387484431335L1122.23866255138 389.1720983642201Q1132.1085924815 390.9796727409572 1140.3430979755242 389.5163982455033Q1148.548911812775 388.0531237500495 1154.4593931081376 383.2616170688576Q1160.3698744035 378.4701103876657 1163.6407232756908 370.2929882071886Q1166.9115721478818 362.1158660267114 1166.9115721478818 350.32359509276L1166.9115721478818 350.32359509276Q1166.9115721478818 342.1464729122829 1165.1900727414654 335.46131688403307Q1163.497264991823 328.74746919900974 1160.1116494925375 324.0420374881386Q1156.7260339932523 319.36529743404117 1151.590227430777 316.78304832441677Q1146.454420868302 314.20079921479237 1139.568423242637 314.20079921479237L1139.568423242637 314.20079921479237Q1135.2359830698226 314.20079921479237 1132.022517511179 314.5737907528493Q1128.7803602957617 314.91809063413245 1126.5711027241941 315.319773828963L1126.5711027241941 315.319773828963Q1123.9601619577963 315.83622365088786 1122.23866255138 316.4387484431335L1122.23866255138 316.4387484431335ZM1100.9494532253657 308.97891768199645L1100.9494532253657 308.577234487166Q1102.957869199518 308.7780760845812 1105.1958184278592 308.97891768199645L1105.1958184278592 308.97891768199645Q1107.089467774917 309.17975927941166 1109.470875287126 309.2084509361853Q1111.8522827993354 309.26583424973245 1114.3771485954126 309.26583424973245L1114.3771485954126 309.26583424973245Q1118.3079055733963 309.26583424973245 1124.993061601646 308.31900957620354Q1131.7069092866693 307.34349324590096 1142.0932890387141 307.34349324590096L1142.0932890387141 307.34349324590096Q1151.7910690281924 307.34349324590096 1159.9968828654432 310.1839672664878Q1168.2313883594675 312.995749630301 1174.285327938698 318.4471644172859Q1180.3392675179284 323.8985792042706 1183.7248830172139 331.70270984669094Q1187.0818068597255 339.5355321458849 1187.0818068597255 349.5202287030992L1187.0818068597255 349.5202287030992Q1187.0818068597255 362.94792407314594 1181.745158699835 372.7317790329449Q1176.4085105399447 382.5156339927439 1167.4280219698067 388.54088191520077Q1158.4475333996684 394.59482149443124 1146.741337436038 396.77538740922523Q1135.0351414724075 398.9559533240191 1122.23866255138 397.0336123201877L1122.23866255138 397.0336123201877L1122.23866255138 413.7608482191989Q1122.23866255138 422.33965359450656 1122.4968874623423 428.7378930550202Q1122.7264207165313 435.1648241723076 1123.099412254588 439.7841809128579Q1123.4437121358715 444.4322293101817 1123.98885361457 447.5596198985046Q1124.5626867500418 450.6870104868275 1125.1652115422876 452.81019308807413L1125.1652115422876 452.81019308807413L1125.1652115422876 453.21187628290465L1100.9494532253657 453.21187628290465L1100.9494532253657 452.81019308807413Q1101.5519780176114 450.6870104868275 1102.09711949631 447.5596198985046Q1102.670952631782 444.4322293101817 1103.0726358266124 439.7841809128579Q1103.4743190214429 435.1648241723076 1103.6751606188582 428.7378930550202Q1103.8760022162735 422.33965359450656 1103.8760022162735 413.7608482191989L1103.8760022162735 413.7608482191989L1103.8760022162735 348.1143375211925Q1103.8760022162735 339.5355321458849 1103.6751606188582 333.1372926853711Q1103.4743190214429 326.71036156808384 1103.0726358266124 322.0336215139863Q1102.670952631782 317.32818980311527 1102.09711949631 314.20079921479237Q1101.5519780176114 311.07340862646953 1100.9494532253657 308.97891768199645L1100.9494532253657 308.97891768199645ZM1208.485782812834 413.7608482191989L1208.485782812834 389.3729399616353Q1208.485782812834 380.7941345863277 1208.2275579018717 374.3958951258139Q1207.9693329909094 367.96896400852665 1207.625033109626 363.34960726797635Q1207.2520415715692 358.70155887065243 1206.7069000928707 355.57416828232965Q1206.1617586141722 352.44677769400676 1205.5592338219265 350.32359509276L1205.5592338219265 350.32359509276L1205.5592338219265 349.9219118979296L1228.8568591220933 349.9219118979296L1228.8568591220933 350.32359509276Q1228.2543343298476 352.44677769400676 1227.7378845079227 355.57416828232965Q1227.2501263427714 358.70155887065243 1226.8484431479408 363.34960726797635Q1226.4180682963367 367.96896400852665 1226.2172266989216 374.3958951258139Q1226.0163851015063 380.7941345863277 1226.0163851015063 389.3729399616353L1226.0163851015063 389.3729399616353L1226.0163851015063 413.7608482191989Q1226.0163851015063 422.33965359450656 1226.2172266989216 428.7378930550202Q1226.4180682963367 435.1648241723076 1226.8484431479408 439.7841809128579Q1227.2501263427714 444.4322293101817 1227.7378845079227 447.5596198985046Q1228.2543343298476 450.6870104868275 1228.8568591220933 452.81019308807413L1228.8568591220933 452.81019308807413L1228.8568591220933 453.21187628290465L1205.5592338219265 453.21187628290465L1205.5592338219265 452.81019308807413Q1206.1617586141722 450.6870104868275 1206.7069000928707 447.5596198985046Q1207.2520415715692 444.4322293101817 1207.625033109626 439.7841809128579Q1207.9693329909094 435.1648241723076 1208.2275579018717 428.7378930550202Q1208.485782812834 422.33965359450656 1208.485782812834 413.7608482191989L1208.485782812834 413.7608482191989ZM1206.3626002115875 319.36529743404117L1206.3626002115875 319.36529743404117Q1206.3626002115875 317.12734820570006 1207.2233499147956 315.1763155450949Q1208.0840996180036 313.1965912277162 1209.4899907999104 311.73331673226244Q1210.895881981817 310.2700422368086 1212.8756062991956 309.4092925336005Q1214.8266389598007 308.577234487166 1217.1506631584627 308.577234487166L1217.1506631584627 308.577234487166Q1219.4746873571246 308.577234487166 1221.4257200177296 309.4092925336005Q1223.4054443351085 310.2700422368086 1224.8687188305623 311.73331673226244Q1226.3319933260161 313.1965912277162 1227.1927430292242 315.1763155450949Q1228.0534927324322 317.12734820570006 1228.0534927324322 319.36529743404117L1228.0534927324322 319.36529743404117Q1228.0534927324322 323.98465417459147 1224.9261021441096 327.11204476291425Q1221.7987115557867 330.23943535123715 1217.1506631584627 330.23943535123715L1217.1506631584627 330.23943535123715Q1214.8266389598007 330.23943535123715 1212.8756062991956 329.4073773048026Q1210.895881981817 328.5466276015944 1209.4899907999104 327.08335310614063Q1208.0840996180036 325.62007861068685 1207.2233499147956 323.6403542933082Q1206.3626002115875 321.6893216327031 1206.3626002115875 319.36529743404117ZM1340.3239456875456 431.1193005672294L1341.5289952720366 431.72182535947513L1334.0691645108998 449.68280249975135Q1331.3434571174073 450.8878520842427 1327.814383334254 451.89206007131884Q1324.2853095511007 452.896268058395 1320.498010856985 453.61355947773507Q1316.710712162869 454.33085089707515 1312.866030155206 454.67515077835844Q1309.0500398043168 455.0194506596416 1305.6070409914844 455.0194506596416L1305.6070409914844 455.0194506596416Q1293.4130868627026 455.0194506596416 1283.0553987674314 451.4329935629412Q1272.7264023289338 447.87522812301427 1265.2091882542497 441.01792215412286Q1257.6919741795652 434.16061618523145 1253.4743006338456 424.1472279712435Q1249.227935431352 414.16253141402933 1249.227935431352 401.3660524930019L1249.227935431352 401.3660524930019Q1249.227935431352 389.97546475388106 1253.6177589177134 380.2203014508556Q1258.007582404075 370.4938298046038 1265.8117130464955 363.34960726797635Q1273.6445353456893 356.17669307457527 1284.2317566951492 352.1311694694971Q1294.8189780446094 348.1143375211925 1307.213773770806 348.1143375211925L1307.213773770806 348.1143375211925Q1312.866030155206 348.1143375211925 1319.3216529292672 349.06116219472153Q1325.777275703328 350.03667852502406 1330.8270072954824 351.52864467725146L1330.8270072954824 351.52864467725146L1337.9999214888833 368.68625542786674L1336.794871904392 369.4035468472068Q1334.2700061083149 366.27615625888393 1330.7696239819352 363.69390714925964Q1327.297933512329 361.11165803963524 1323.108951623383 359.30408366289817Q1318.9199697344368 357.4965092861611 1314.3006129938865 356.49230129908494Q1309.6525645965626 355.4594016552352 1304.8036746018236 355.4594016552352L1304.8036746018236 355.4594016552352Q1296.942160645856 355.4594016552352 1290.4865378717948 358.2424923622748Q1284.030915097734 361.0255830693144 1279.3828667004102 366.27615625888393Q1274.734818303086 371.49803779167996 1272.1812608502355 379.1300184934587Q1269.599011740611 386.7333075384637 1269.599011740611 396.43108752794194L1269.599011740611 396.43108752794194Q1269.599011740611 407.3052254451379 1272.066494223141 416.6873972101065Q1274.533976705671 426.0695689750751 1279.4402500139574 432.9842582575137Q1284.31783166547 439.89894753995225 1291.7489707698335 443.77232120438885Q1299.1514182174235 447.67438652559895 1309.1361147746377 447.67438652559895L1309.1361147746377 447.67438652559895Q1313.7841631719614 447.67438652559895 1318.3748282557383 446.4980285978812Q1322.9654933395148 445.3503623269371 1327.0397086013666 443.1697964121431Q1331.1426155199922 441.01792215412286 1334.5569226760508 437.9766065361208Q1337.9999214888833 434.9639825748924 1340.3239456875456 431.1193005672294L1340.3239456875456 431.1193005672294Z"/></g></svg>